<mxfile host="Electron" modified="2023-10-05T12:26:01.545Z" agent="Mozilla/5.0 (Windows NT 10.0; Win64; x64) AppleWebKit/537.36 (KHTML, like Gecko) draw.io/22.0.2 Chrome/114.0.5735.289 Electron/25.8.4 Safari/537.36" etag="434SBjsnwha0jZ-YsHIH" version="22.0.2" type="device" pages="4">
  <diagram id="SYm-U5gStwowqyjpmJ1E" name="存檔系統">
    <mxGraphModel dx="1008" dy="1692" grid="1" gridSize="10" guides="1" tooltips="1" connect="1" arrows="1" fold="1" page="1" pageScale="1" pageWidth="850" pageHeight="1100" math="0" shadow="0">
      <root>
        <mxCell id="0" />
        <mxCell id="1" parent="0" />
        <mxCell id="IldoYDXiHOKxBzJlJ0th-2" value="" style="edgeStyle=orthogonalEdgeStyle;rounded=0;orthogonalLoop=1;jettySize=auto;html=1;" edge="1" parent="1" source="vzOLW-zc34MkJA6tJTIG-1" target="IldoYDXiHOKxBzJlJ0th-1">
          <mxGeometry relative="1" as="geometry" />
        </mxCell>
        <mxCell id="vzOLW-zc34MkJA6tJTIG-1" value="Save Manager" style="shape=cylinder3;whiteSpace=wrap;html=1;boundedLbl=1;backgroundOutline=1;size=15;fillColor=#f8cecc;strokeColor=#b85450;strokeWidth=2;shadow=0;perimeterSpacing=0;gradientColor=none;fillStyle=solid;fontStyle=1" vertex="1" parent="1">
          <mxGeometry x="350" y="-760" width="90" height="80" as="geometry" />
        </mxCell>
        <mxCell id="lvjllyK5uadsF6VkliPy-4" value="" style="edgeStyle=orthogonalEdgeStyle;rounded=0;orthogonalLoop=1;jettySize=auto;html=1;" edge="1" parent="1" source="lvjllyK5uadsF6VkliPy-1" target="lvjllyK5uadsF6VkliPy-3">
          <mxGeometry relative="1" as="geometry" />
        </mxCell>
        <mxCell id="lvjllyK5uadsF6VkliPy-1" value="第一次進入遊戲" style="rounded=1;whiteSpace=wrap;html=1;fillColor=#dae8fc;strokeColor=#6c8ebf;" vertex="1" parent="1">
          <mxGeometry x="320" y="-920" width="150" height="60" as="geometry" />
        </mxCell>
        <mxCell id="lvjllyK5uadsF6VkliPy-5" value="" style="edgeStyle=orthogonalEdgeStyle;rounded=0;orthogonalLoop=1;jettySize=auto;html=1;" edge="1" parent="1" source="lvjllyK5uadsF6VkliPy-3" target="vzOLW-zc34MkJA6tJTIG-1">
          <mxGeometry relative="1" as="geometry" />
        </mxCell>
        <mxCell id="lvjllyK5uadsF6VkliPy-3" value="註冊、登入遊戲" style="rounded=1;whiteSpace=wrap;html=1;fillColor=#dae8fc;strokeColor=#6c8ebf;" vertex="1" parent="1">
          <mxGeometry x="320" y="-840" width="150" height="60" as="geometry" />
        </mxCell>
        <mxCell id="IldoYDXiHOKxBzJlJ0th-4" value="True" style="edgeStyle=orthogonalEdgeStyle;rounded=0;orthogonalLoop=1;jettySize=auto;html=1;entryX=0.5;entryY=0.3;entryDx=0;entryDy=0;entryPerimeter=0;" edge="1" parent="1" source="IldoYDXiHOKxBzJlJ0th-1" target="DJbqpxCsPQaYWfu8nxJI-1">
          <mxGeometry relative="1" as="geometry">
            <mxPoint x="270" y="-540" as="targetPoint" />
          </mxGeometry>
        </mxCell>
        <mxCell id="IldoYDXiHOKxBzJlJ0th-6" value="False" style="edgeStyle=orthogonalEdgeStyle;rounded=0;orthogonalLoop=1;jettySize=auto;html=1;" edge="1" parent="1" source="IldoYDXiHOKxBzJlJ0th-1" target="IldoYDXiHOKxBzJlJ0th-5">
          <mxGeometry relative="1" as="geometry" />
        </mxCell>
        <mxCell id="IldoYDXiHOKxBzJlJ0th-1" value="玩家帳號是否找到&lt;br&gt;存檔記錄？" style="rhombus;whiteSpace=wrap;html=1;fillColor=#ffe6cc;strokeColor=#d79b00;" vertex="1" parent="1">
          <mxGeometry x="342.5" y="-660" width="105" height="80" as="geometry" />
        </mxCell>
        <mxCell id="IldoYDXiHOKxBzJlJ0th-5" value="存入默認存檔" style="whiteSpace=wrap;html=1;fillColor=#dae8fc;strokeColor=#6c8ebf;" vertex="1" parent="1">
          <mxGeometry x="460" y="-540" width="120" height="60" as="geometry" />
        </mxCell>
        <UserObject label="選擇關卡場景" id="DJbqpxCsPQaYWfu8nxJI-1">
          <mxCell style="shape=singleArrow;whiteSpace=wrap;html=1;arrowWidth=0.4;arrowSize=0.4;fillColor=#e1d5e7;strokeColor=#9673a6;rounded=0;points=[[0,0,0,0,18],[0,0,0,0,42],[0,0,0,33,18],[0,0,0,33,42],[0,0,0,66,0],[0,0,0,66,60],[0,0.5,0,0,0],[0.5,0.3,0,0,0],[1,0.5,0,0,0]];" vertex="1" parent="1">
            <mxGeometry x="340" y="-420" width="110" height="60" as="geometry" />
          </mxCell>
        </UserObject>
        <mxCell id="zfW3lTBraVnShW69hkYM-1" style="edgeStyle=orthogonalEdgeStyle;rounded=0;orthogonalLoop=1;jettySize=auto;html=1;exitX=0.5;exitY=1;exitDx=0;exitDy=0;entryX=1;entryY=0.5;entryDx=0;entryDy=0;entryPerimeter=0;" edge="1" parent="1" source="IldoYDXiHOKxBzJlJ0th-5" target="DJbqpxCsPQaYWfu8nxJI-1">
          <mxGeometry relative="1" as="geometry" />
        </mxCell>
      </root>
    </mxGraphModel>
  </diagram>
  <diagram id="FMEm7LZYtFMIhO8RzOJS" name="選擇關卡場景">
    <mxGraphModel dx="1170" dy="1787" grid="1" gridSize="10" guides="1" tooltips="1" connect="1" arrows="1" fold="1" page="1" pageScale="1" pageWidth="850" pageHeight="1100" math="0" shadow="0">
      <root>
        <mxCell id="0" />
        <mxCell id="1" parent="0" />
        <mxCell id="t-SRiTQIqaWL12x6MjEI-5" value="" style="edgeStyle=orthogonalEdgeStyle;rounded=0;orthogonalLoop=1;jettySize=auto;html=1;" edge="1" parent="1" source="Dz0EJtFZJ1YwWrNop-BQ-1" target="t-SRiTQIqaWL12x6MjEI-3">
          <mxGeometry relative="1" as="geometry" />
        </mxCell>
        <mxCell id="Dz0EJtFZJ1YwWrNop-BQ-1" value="進入 &lt;br&gt;Stage Selection Scece" style="rounded=1;whiteSpace=wrap;html=1;fillColor=#dae8fc;strokeColor=#6c8ebf;" vertex="1" parent="1">
          <mxGeometry x="340" y="-960" width="150" height="60" as="geometry" />
        </mxCell>
        <mxCell id="t-SRiTQIqaWL12x6MjEI-1" value="" style="edgeStyle=orthogonalEdgeStyle;rounded=0;orthogonalLoop=1;jettySize=auto;html=1;" edge="1" parent="1" source="t-SRiTQIqaWL12x6MjEI-3" target="t-SRiTQIqaWL12x6MjEI-4">
          <mxGeometry relative="1" as="geometry" />
        </mxCell>
        <mxCell id="t-SRiTQIqaWL12x6MjEI-2" value="讀取存檔內容" style="edgeLabel;html=1;align=center;verticalAlign=middle;resizable=0;points=[];" vertex="1" connectable="0" parent="t-SRiTQIqaWL12x6MjEI-1">
          <mxGeometry x="-0.0302" y="-3" relative="1" as="geometry">
            <mxPoint as="offset" />
          </mxGeometry>
        </mxCell>
        <mxCell id="7lQA6mCJXyywJBUrQB9j-13" value="" style="edgeStyle=orthogonalEdgeStyle;rounded=0;orthogonalLoop=1;jettySize=auto;html=1;" edge="1" parent="1" source="t-SRiTQIqaWL12x6MjEI-3" target="7lQA6mCJXyywJBUrQB9j-12">
          <mxGeometry relative="1" as="geometry" />
        </mxCell>
        <mxCell id="t-SRiTQIqaWL12x6MjEI-3" value="Save Manager" style="shape=cylinder3;whiteSpace=wrap;html=1;boundedLbl=1;backgroundOutline=1;size=15;fillColor=#f8cecc;strokeColor=#b85450;strokeWidth=2;shadow=0;perimeterSpacing=0;gradientColor=none;fillStyle=solid;fontStyle=1" vertex="1" parent="1">
          <mxGeometry x="370" y="-860" width="90" height="80" as="geometry" />
        </mxCell>
        <mxCell id="7lQA6mCJXyywJBUrQB9j-6" value="" style="edgeStyle=orthogonalEdgeStyle;rounded=0;orthogonalLoop=1;jettySize=auto;html=1;" edge="1" parent="1" source="t-SRiTQIqaWL12x6MjEI-4" target="7lQA6mCJXyywJBUrQB9j-2">
          <mxGeometry relative="1" as="geometry" />
        </mxCell>
        <mxCell id="t-SRiTQIqaWL12x6MjEI-4" value="Game Manual" style="shape=cylinder3;whiteSpace=wrap;html=1;boundedLbl=1;backgroundOutline=1;size=15;fillColor=#f8cecc;strokeColor=#b85450;fontStyle=1;strokeWidth=2;" vertex="1" parent="1">
          <mxGeometry x="570" y="-860" width="90" height="80" as="geometry" />
        </mxCell>
        <mxCell id="7lQA6mCJXyywJBUrQB9j-7" value="" style="edgeStyle=orthogonalEdgeStyle;rounded=0;orthogonalLoop=1;jettySize=auto;html=1;" edge="1" parent="1" source="7lQA6mCJXyywJBUrQB9j-2" target="7lQA6mCJXyywJBUrQB9j-5">
          <mxGeometry relative="1" as="geometry" />
        </mxCell>
        <mxCell id="7lQA6mCJXyywJBUrQB9j-2" value="遊戲手冊按鈕" style="shape=parallelogram;perimeter=parallelogramPerimeter;whiteSpace=wrap;html=1;fixedSize=1;fillColor=#d5e8d4;strokeColor=#82b366;" vertex="1" parent="1">
          <mxGeometry x="555" y="-750" width="120" height="60" as="geometry" />
        </mxCell>
        <mxCell id="7lQA6mCJXyywJBUrQB9j-5" value="開啟手冊內容" style="rounded=0;whiteSpace=wrap;html=1;fillColor=#dae8fc;strokeColor=#6c8ebf;" vertex="1" parent="1">
          <mxGeometry x="554.9955172413795" y="-650" width="120" height="60" as="geometry" />
        </mxCell>
        <mxCell id="7lQA6mCJXyywJBUrQB9j-11" value="關閉手冊" style="edgeStyle=orthogonalEdgeStyle;rounded=0;orthogonalLoop=1;jettySize=auto;html=1;exitX=1;exitY=0.5;exitDx=0;exitDy=0;entryX=1;entryY=0.5;entryDx=0;entryDy=0;entryPerimeter=0;" edge="1" parent="1" source="7lQA6mCJXyywJBUrQB9j-5" target="t-SRiTQIqaWL12x6MjEI-4">
          <mxGeometry relative="1" as="geometry" />
        </mxCell>
        <mxCell id="7lQA6mCJXyywJBUrQB9j-12" value="&lt;span style=&quot;font-weight: normal;&quot;&gt;解鎖關卡按鈕&lt;/span&gt;" style="whiteSpace=wrap;html=1;fillColor=#dae8fc;strokeColor=#6c8ebf;strokeWidth=1;shadow=0;fillStyle=solid;fontStyle=1;" vertex="1" parent="1">
          <mxGeometry x="355" y="-730" width="120" height="60" as="geometry" />
        </mxCell>
        <UserObject label="進入遊戲場景（初始化）" link="data:page/id,w2h1bLGhRpKSe5cGu9_I" id="kTgVZNdjaZg3RquLMW2g-1">
          <mxCell style="shape=singleArrow;whiteSpace=wrap;html=1;arrowWidth=0.4;arrowSize=0.4;fillColor=#e1d5e7;strokeColor=#9673a6;rounded=0;points=[[0,0,0,0,18],[0,0,0,0,42],[0,0,0,33,18],[0,0,0,33,42],[0,0,0,66,0],[0,0,0,66,60],[0,0.5,0,0,0],[0.5,0.3,0,0,0],[1,0.5,0,0,0]];" vertex="1" parent="1">
            <mxGeometry x="345" y="-630" width="140" height="60" as="geometry" />
          </mxCell>
        </UserObject>
        <mxCell id="kTgVZNdjaZg3RquLMW2g-3" style="edgeStyle=orthogonalEdgeStyle;rounded=0;orthogonalLoop=1;jettySize=auto;html=1;exitX=0.5;exitY=1;exitDx=0;exitDy=0;entryX=0.5;entryY=0.3;entryDx=0;entryDy=0;entryPerimeter=0;" edge="1" parent="1" source="7lQA6mCJXyywJBUrQB9j-12" target="kTgVZNdjaZg3RquLMW2g-1">
          <mxGeometry relative="1" as="geometry" />
        </mxCell>
      </root>
    </mxGraphModel>
  </diagram>
  <diagram name="進入遊戲場景（初始化）" id="w2h1bLGhRpKSe5cGu9_I">
    <mxGraphModel dx="1218" dy="1816" grid="1" gridSize="10" guides="1" tooltips="1" connect="1" arrows="1" fold="1" page="1" pageScale="1" pageWidth="850" pageHeight="1100" math="0" shadow="0">
      <root>
        <mxCell id="0" />
        <mxCell id="1" parent="0" />
        <mxCell id="_39_yMaiTHqc9KQaCo4u-34" value="" style="group" parent="1" vertex="1" connectable="0">
          <mxGeometry x="385" y="230" as="geometry" />
        </mxCell>
        <mxCell id="_39_yMaiTHqc9KQaCo4u-29" value="" style="endArrow=none;html=1;rounded=0;exitX=1;exitY=0.5;exitDx=0;exitDy=0;exitPerimeter=0;strokeWidth=2;fillColor=#f8cecc;strokeColor=#b85450;" parent="_39_yMaiTHqc9KQaCo4u-34" source="5bKGyjGCQmsBPgQ39SGi-45" target="5bKGyjGCQmsBPgQ39SGi-53" edge="1">
          <mxGeometry width="50" height="50" relative="1" as="geometry">
            <mxPoint x="85" y="230" as="sourcePoint" />
            <mxPoint x="135" y="180" as="targetPoint" />
          </mxGeometry>
        </mxCell>
        <mxCell id="_39_yMaiTHqc9KQaCo4u-32" value="" style="endArrow=classic;html=1;rounded=0;entryX=0.5;entryY=0;entryDx=0;entryDy=0;strokeWidth=2;fillColor=#f8cecc;strokeColor=#b85450;" parent="_39_yMaiTHqc9KQaCo4u-34" target="5bKGyjGCQmsBPgQ39SGi-61" edge="1">
          <mxGeometry width="50" height="50" relative="1" as="geometry">
            <mxPoint as="sourcePoint" />
            <mxPoint x="135" y="40" as="targetPoint" />
          </mxGeometry>
        </mxCell>
        <mxCell id="5bKGyjGCQmsBPgQ39SGi-35" value="" style="edgeStyle=orthogonalEdgeStyle;rounded=0;orthogonalLoop=1;jettySize=auto;html=1;entryX=1;entryY=0.5;entryDx=0;entryDy=0;entryPerimeter=0;" parent="1" source="5bKGyjGCQmsBPgQ39SGi-32" target="5bKGyjGCQmsBPgQ39SGi-89" edge="1">
          <mxGeometry relative="1" as="geometry">
            <mxPoint x="335" y="570" as="targetPoint" />
          </mxGeometry>
        </mxCell>
        <mxCell id="5bKGyjGCQmsBPgQ39SGi-73" value="True" style="edgeLabel;html=1;align=center;verticalAlign=middle;resizable=0;points=[];" parent="5bKGyjGCQmsBPgQ39SGi-35" vertex="1" connectable="0">
          <mxGeometry x="0.2179" y="-2" relative="1" as="geometry">
            <mxPoint as="offset" />
          </mxGeometry>
        </mxCell>
        <mxCell id="5bKGyjGCQmsBPgQ39SGi-32" value="第一次&lt;br&gt;按下按鈕？" style="rhombus;whiteSpace=wrap;html=1;fillColor=#ffe6cc;strokeColor=#d79b00;rounded=0;" parent="1" vertex="1">
          <mxGeometry x="345" y="480" width="80" height="80" as="geometry" />
        </mxCell>
        <mxCell id="5bKGyjGCQmsBPgQ39SGi-41" value="" style="edgeStyle=orthogonalEdgeStyle;rounded=0;orthogonalLoop=1;jettySize=auto;html=1;" parent="1" source="5bKGyjGCQmsBPgQ39SGi-38" target="5bKGyjGCQmsBPgQ39SGi-40" edge="1">
          <mxGeometry relative="1" as="geometry" />
        </mxCell>
        <mxCell id="5bKGyjGCQmsBPgQ39SGi-127" value="讀取存檔內容" style="edgeLabel;html=1;align=center;verticalAlign=middle;resizable=0;points=[];" parent="5bKGyjGCQmsBPgQ39SGi-41" vertex="1" connectable="0">
          <mxGeometry x="-0.0302" y="-3" relative="1" as="geometry">
            <mxPoint as="offset" />
          </mxGeometry>
        </mxCell>
        <mxCell id="5bKGyjGCQmsBPgQ39SGi-46" value="根據選擇的關卡 ID&lt;br&gt;尋找對應的 GameObject" style="edgeStyle=orthogonalEdgeStyle;rounded=0;orthogonalLoop=1;jettySize=auto;html=1;" parent="1" source="5bKGyjGCQmsBPgQ39SGi-38" target="5bKGyjGCQmsBPgQ39SGi-45" edge="1">
          <mxGeometry relative="1" as="geometry" />
        </mxCell>
        <mxCell id="5bKGyjGCQmsBPgQ39SGi-38" value="Save Manager" style="shape=cylinder3;whiteSpace=wrap;html=1;boundedLbl=1;backgroundOutline=1;size=15;fillColor=#f8cecc;strokeColor=#b85450;strokeWidth=2;shadow=0;perimeterSpacing=0;gradientColor=none;fillStyle=solid;fontStyle=1" parent="1" vertex="1">
          <mxGeometry x="155" y="-80" width="90" height="80" as="geometry" />
        </mxCell>
        <mxCell id="5bKGyjGCQmsBPgQ39SGi-129" value="" style="edgeStyle=orthogonalEdgeStyle;rounded=0;orthogonalLoop=1;jettySize=auto;html=1;" parent="1" source="5bKGyjGCQmsBPgQ39SGi-40" target="5bKGyjGCQmsBPgQ39SGi-128" edge="1">
          <mxGeometry relative="1" as="geometry" />
        </mxCell>
        <mxCell id="5bKGyjGCQmsBPgQ39SGi-40" value="Game Manual" style="shape=cylinder3;whiteSpace=wrap;html=1;boundedLbl=1;backgroundOutline=1;size=15;fillColor=#f8cecc;strokeColor=#b85450;fontStyle=1;strokeWidth=2;" parent="1" vertex="1">
          <mxGeometry x="360" y="-80" width="90" height="80" as="geometry" />
        </mxCell>
        <mxCell id="5bKGyjGCQmsBPgQ39SGi-142" style="edgeStyle=orthogonalEdgeStyle;rounded=0;orthogonalLoop=1;jettySize=auto;html=1;exitX=0.855;exitY=0;exitDx=0;exitDy=4.35;exitPerimeter=0;" parent="1" source="5bKGyjGCQmsBPgQ39SGi-45" target="_39_yMaiTHqc9KQaCo4u-6" edge="1">
          <mxGeometry relative="1" as="geometry">
            <Array as="points">
              <mxPoint x="200" y="194" />
              <mxPoint x="200" y="69" />
            </Array>
            <mxPoint x="231.95000000000005" y="199.3499999999999" as="sourcePoint" />
            <mxPoint x="559.9999999999998" y="73.99999999999977" as="targetPoint" />
          </mxGeometry>
        </mxCell>
        <mxCell id="_39_yMaiTHqc9KQaCo4u-16" value="當初始化完成後，&lt;br&gt;將這個列表給予 Game Manual 判斷" style="edgeLabel;html=1;align=center;verticalAlign=middle;resizable=0;points=[];" parent="5bKGyjGCQmsBPgQ39SGi-142" vertex="1" connectable="0">
          <mxGeometry x="0.2912" y="4" relative="1" as="geometry">
            <mxPoint as="offset" />
          </mxGeometry>
        </mxCell>
        <mxCell id="5bKGyjGCQmsBPgQ39SGi-69" value="" style="edgeStyle=orthogonalEdgeStyle;rounded=0;orthogonalLoop=1;jettySize=auto;html=1;" parent="1" source="5bKGyjGCQmsBPgQ39SGi-61" target="5bKGyjGCQmsBPgQ39SGi-68" edge="1">
          <mxGeometry relative="1" as="geometry" />
        </mxCell>
        <mxCell id="5bKGyjGCQmsBPgQ39SGi-61" value="將它們設為Global&lt;br&gt;並啟動 GameObject" style="rounded=0;whiteSpace=wrap;html=1;fillColor=#dae8fc;strokeColor=#6c8ebf;" parent="1" vertex="1">
          <mxGeometry x="310" y="310" width="150" height="60" as="geometry" />
        </mxCell>
        <mxCell id="5bKGyjGCQmsBPgQ39SGi-71" value="" style="edgeStyle=orthogonalEdgeStyle;rounded=0;orthogonalLoop=1;jettySize=auto;html=1;" parent="1" source="5bKGyjGCQmsBPgQ39SGi-68" target="5bKGyjGCQmsBPgQ39SGi-32" edge="1">
          <mxGeometry relative="1" as="geometry" />
        </mxCell>
        <mxCell id="5bKGyjGCQmsBPgQ39SGi-68" value="幫助按鈕" style="shape=parallelogram;perimeter=parallelogramPerimeter;whiteSpace=wrap;html=1;fixedSize=1;fillColor=#d5e8d4;strokeColor=#82b366;" parent="1" vertex="1">
          <mxGeometry x="325" y="390" width="120" height="60" as="geometry" />
        </mxCell>
        <mxCell id="5bKGyjGCQmsBPgQ39SGi-96" style="edgeStyle=orthogonalEdgeStyle;rounded=0;orthogonalLoop=1;jettySize=auto;html=1;entryX=0;entryY=0.5;entryDx=0;entryDy=0;" parent="1" source="5bKGyjGCQmsBPgQ39SGi-76" target="5bKGyjGCQmsBPgQ39SGi-95" edge="1">
          <mxGeometry relative="1" as="geometry" />
        </mxCell>
        <mxCell id="_39_yMaiTHqc9KQaCo4u-63" value="對話過程&lt;br&gt;啟動建構背景關卡" style="edgeLabel;html=1;align=center;verticalAlign=middle;resizable=0;points=[];fontSize=12;fontFamily=Helvetica;fontColor=default;" parent="5bKGyjGCQmsBPgQ39SGi-96" vertex="1" connectable="0">
          <mxGeometry x="-0.0833" y="1" relative="1" as="geometry">
            <mxPoint as="offset" />
          </mxGeometry>
        </mxCell>
        <mxCell id="5bKGyjGCQmsBPgQ39SGi-76" value="開始第一個對話" style="rounded=0;whiteSpace=wrap;html=1;fillColor=#dae8fc;strokeColor=#6c8ebf;" parent="1" vertex="1">
          <mxGeometry x="140" y="671.33" width="120" height="60" as="geometry" />
        </mxCell>
        <mxCell id="5bKGyjGCQmsBPgQ39SGi-89" value="Stage Manager" style="shape=cylinder3;whiteSpace=wrap;html=1;boundedLbl=1;backgroundOutline=1;size=15;fillColor=#f8cecc;strokeColor=#b85450;" parent="1" vertex="1">
          <mxGeometry x="155" y="480" width="90" height="80" as="geometry" />
        </mxCell>
        <mxCell id="5bKGyjGCQmsBPgQ39SGi-90" style="edgeStyle=orthogonalEdgeStyle;rounded=0;orthogonalLoop=1;jettySize=auto;html=1;exitX=0.5;exitY=1;exitDx=0;exitDy=0;exitPerimeter=0;entryX=0.5;entryY=0;entryDx=0;entryDy=0;" parent="1" source="5bKGyjGCQmsBPgQ39SGi-89" target="5bKGyjGCQmsBPgQ39SGi-76" edge="1">
          <mxGeometry relative="1" as="geometry">
            <mxPoint x="327.5" y="700" as="sourcePoint" />
            <mxPoint x="315" y="730" as="targetPoint" />
          </mxGeometry>
        </mxCell>
        <mxCell id="5bKGyjGCQmsBPgQ39SGi-91" value="獲取對應的對話內容" style="edgeLabel;html=1;align=center;verticalAlign=middle;resizable=0;points=[];" parent="5bKGyjGCQmsBPgQ39SGi-90" vertex="1" connectable="0">
          <mxGeometry x="0.1382" y="3" relative="1" as="geometry">
            <mxPoint x="-3" y="-8" as="offset" />
          </mxGeometry>
        </mxCell>
        <mxCell id="5bKGyjGCQmsBPgQ39SGi-98" value="建構完成" style="edgeStyle=orthogonalEdgeStyle;rounded=0;orthogonalLoop=1;jettySize=auto;html=1;entryX=0;entryY=0.5;entryDx=0;entryDy=0;" parent="1" source="5bKGyjGCQmsBPgQ39SGi-95" edge="1" target="_39_yMaiTHqc9KQaCo4u-41">
          <mxGeometry relative="1" as="geometry">
            <mxPoint x="650" y="701.33" as="targetPoint" />
          </mxGeometry>
        </mxCell>
        <mxCell id="5bKGyjGCQmsBPgQ39SGi-95" value="根據 Stage Manager&lt;br&gt;的 FileData&lt;br&gt;來建構對應檔案、狀態" style="rounded=0;whiteSpace=wrap;html=1;fillColor=#dae8fc;strokeColor=#6c8ebf;" parent="1" vertex="1">
          <mxGeometry x="400" y="671.33" width="140" height="60" as="geometry" />
        </mxCell>
        <mxCell id="5bKGyjGCQmsBPgQ39SGi-113" value="" style="endArrow=none;dashed=1;html=1;dashPattern=1 3;strokeWidth=2;rounded=0;entryX=0.5;entryY=1;entryDx=0;entryDy=0;entryPerimeter=0;exitX=0.5;exitY=0;exitDx=0;exitDy=0;exitPerimeter=0;" parent="1" source="5bKGyjGCQmsBPgQ39SGi-89" target="5bKGyjGCQmsBPgQ39SGi-45" edge="1">
          <mxGeometry width="50" height="50" relative="1" as="geometry">
            <mxPoint x="150" y="390" as="sourcePoint" />
            <mxPoint x="200" y="340" as="targetPoint" />
          </mxGeometry>
        </mxCell>
        <mxCell id="5bKGyjGCQmsBPgQ39SGi-144" style="edgeStyle=orthogonalEdgeStyle;rounded=0;orthogonalLoop=1;jettySize=auto;html=1;entryX=0;entryY=0.5;entryDx=0;entryDy=0;" parent="1" source="5bKGyjGCQmsBPgQ39SGi-128" target="_39_yMaiTHqc9KQaCo4u-11" edge="1">
          <mxGeometry relative="1" as="geometry">
            <mxPoint x="810.04" y="-39.98999999999978" as="targetPoint" />
          </mxGeometry>
        </mxCell>
        <mxCell id="5bKGyjGCQmsBPgQ39SGi-146" value="True -&amp;gt; 讓指令獲得以下數值" style="edgeLabel;html=1;align=center;verticalAlign=middle;resizable=0;points=[];" parent="5bKGyjGCQmsBPgQ39SGi-144" vertex="1" connectable="0">
          <mxGeometry x="0.0372" y="1" relative="1" as="geometry">
            <mxPoint x="-7" y="1" as="offset" />
          </mxGeometry>
        </mxCell>
        <mxCell id="5bKGyjGCQmsBPgQ39SGi-128" value="Stage Manager&lt;br&gt;初始化完成？" style="rhombus;whiteSpace=wrap;html=1;fillColor=#ffe6cc;strokeColor=#d79b00;" parent="1" vertex="1">
          <mxGeometry x="490" y="-80" width="105" height="80" as="geometry" />
        </mxCell>
        <mxCell id="_39_yMaiTHqc9KQaCo4u-9" style="edgeStyle=orthogonalEdgeStyle;rounded=0;orthogonalLoop=1;jettySize=auto;html=1;exitX=0.5;exitY=0;exitDx=0;exitDy=0;entryX=0;entryY=0.5;entryDx=0;entryDy=0;" parent="1" target="_39_yMaiTHqc9KQaCo4u-14" edge="1">
          <mxGeometry relative="1" as="geometry">
            <mxPoint x="804.9999999999998" y="-15" as="targetPoint" />
            <mxPoint x="680" y="30" as="sourcePoint" />
          </mxGeometry>
        </mxCell>
        <mxCell id="_39_yMaiTHqc9KQaCo4u-10" value="根據這個列表決定 T or F" style="edgeLabel;html=1;align=center;verticalAlign=middle;resizable=0;points=[];" parent="_39_yMaiTHqc9KQaCo4u-9" vertex="1" connectable="0">
          <mxGeometry x="-0.0935" y="1" relative="1" as="geometry">
            <mxPoint as="offset" />
          </mxGeometry>
        </mxCell>
        <mxCell id="_39_yMaiTHqc9KQaCo4u-5" value="本關可以使用的指令列表" style="swimlane;fontStyle=0;childLayout=stackLayout;horizontal=1;startSize=26;fillColor=#ffe6cc;horizontalStack=0;resizeParent=1;resizeParentMax=0;resizeLast=0;collapsible=1;marginBottom=0;whiteSpace=wrap;html=1;strokeColor=#d79b00;" parent="1" vertex="1">
          <mxGeometry x="610" y="30" width="140" height="78" as="geometry" />
        </mxCell>
        <mxCell id="_39_yMaiTHqc9KQaCo4u-6" value="+ 指令名稱: string" style="text;strokeColor=#d79b00;fillColor=#ffe6cc;align=left;verticalAlign=top;spacingLeft=4;spacingRight=4;overflow=hidden;rotatable=0;points=[[0,0.5],[1,0.5]];portConstraint=eastwest;whiteSpace=wrap;html=1;" parent="_39_yMaiTHqc9KQaCo4u-5" vertex="1">
          <mxGeometry y="26" width="140" height="26" as="geometry" />
        </mxCell>
        <mxCell id="_39_yMaiTHqc9KQaCo4u-7" value="+ 解鎖到的進度: int" style="text;strokeColor=#d79b00;fillColor=#ffe6cc;align=left;verticalAlign=top;spacingLeft=4;spacingRight=4;overflow=hidden;rotatable=0;points=[[0,0.5],[1,0.5]];portConstraint=eastwest;whiteSpace=wrap;html=1;" parent="_39_yMaiTHqc9KQaCo4u-5" vertex="1">
          <mxGeometry y="52" width="140" height="26" as="geometry" />
        </mxCell>
        <mxCell id="_39_yMaiTHqc9KQaCo4u-11" value="這個指令可以使用與本關嗎？" style="swimlane;fontStyle=0;childLayout=stackLayout;horizontal=1;startSize=26;fillColor=#f8cecc;horizontalStack=0;resizeParent=1;resizeParentMax=0;resizeLast=0;collapsible=1;marginBottom=0;whiteSpace=wrap;html=1;strokeColor=#b85450;" parent="1" vertex="1">
          <mxGeometry x="830" y="-92" width="190" height="104" as="geometry" />
        </mxCell>
        <mxCell id="_39_yMaiTHqc9KQaCo4u-12" value="+ 指令名稱: string" style="text;strokeColor=#b85450;fillColor=#f8cecc;align=left;verticalAlign=top;spacingLeft=4;spacingRight=4;overflow=hidden;rotatable=0;points=[[0,0.5],[1,0.5]];portConstraint=eastwest;whiteSpace=wrap;html=1;" parent="_39_yMaiTHqc9KQaCo4u-11" vertex="1">
          <mxGeometry y="26" width="190" height="26" as="geometry" />
        </mxCell>
        <mxCell id="_39_yMaiTHqc9KQaCo4u-13" value="+ 解鎖到的進度: int" style="text;strokeColor=#b85450;fillColor=#f8cecc;align=left;verticalAlign=top;spacingLeft=4;spacingRight=4;overflow=hidden;rotatable=0;points=[[0,0.5],[1,0.5]];portConstraint=eastwest;whiteSpace=wrap;html=1;" parent="_39_yMaiTHqc9KQaCo4u-11" vertex="1">
          <mxGeometry y="52" width="190" height="26" as="geometry" />
        </mxCell>
        <mxCell id="_39_yMaiTHqc9KQaCo4u-14" value="+ 可以用於本關:&amp;nbsp; bool" style="text;strokeColor=#b85450;fillColor=#f8cecc;align=left;verticalAlign=top;spacingLeft=4;spacingRight=4;overflow=hidden;rotatable=0;points=[[0,0.5],[1,0.5]];portConstraint=eastwest;whiteSpace=wrap;html=1;" parent="_39_yMaiTHqc9KQaCo4u-11" vertex="1">
          <mxGeometry y="78" width="190" height="26" as="geometry" />
        </mxCell>
        <mxCell id="_39_yMaiTHqc9KQaCo4u-19" value="" style="edgeStyle=orthogonalEdgeStyle;rounded=0;orthogonalLoop=1;jettySize=auto;html=1;" parent="1" source="_39_yMaiTHqc9KQaCo4u-18" target="5bKGyjGCQmsBPgQ39SGi-38" edge="1">
          <mxGeometry relative="1" as="geometry" />
        </mxCell>
        <mxCell id="_39_yMaiTHqc9KQaCo4u-18" value="進入 Game Scece" style="rounded=1;whiteSpace=wrap;html=1;fillColor=#dae8fc;strokeColor=#6c8ebf;" parent="1" vertex="1">
          <mxGeometry x="140" y="-190" width="120" height="60" as="geometry" />
        </mxCell>
        <mxCell id="5bKGyjGCQmsBPgQ39SGi-45" value="Stage Manager" style="shape=cylinder3;whiteSpace=wrap;html=1;boundedLbl=1;backgroundOutline=1;size=15;fillColor=#f8cecc;strokeColor=#b85450;" parent="1" vertex="1">
          <mxGeometry x="155" y="190" width="90" height="80" as="geometry" />
        </mxCell>
        <mxCell id="5bKGyjGCQmsBPgQ39SGi-48" value="Random Data" style="shape=cylinder3;whiteSpace=wrap;html=1;boundedLbl=1;backgroundOutline=1;size=15;fillColor=#f8cecc;strokeColor=#b85450;" parent="1" vertex="1">
          <mxGeometry x="280" y="190" width="90" height="80" as="geometry" />
        </mxCell>
        <mxCell id="5bKGyjGCQmsBPgQ39SGi-51" value="Quest Tracker" style="shape=cylinder3;whiteSpace=wrap;html=1;boundedLbl=1;backgroundOutline=1;size=15;fillColor=#f8cecc;strokeColor=#b85450;" parent="1" vertex="1">
          <mxGeometry x="405" y="190" width="90" height="80" as="geometry" />
        </mxCell>
        <mxCell id="5bKGyjGCQmsBPgQ39SGi-53" value="Help Dialogue System" style="shape=cylinder3;whiteSpace=wrap;html=1;boundedLbl=1;backgroundOutline=1;size=15;fillColor=#f8cecc;strokeColor=#b85450;" parent="1" vertex="1">
          <mxGeometry x="530" y="190" width="90" height="80" as="geometry" />
        </mxCell>
        <mxCell id="_39_yMaiTHqc9KQaCo4u-28" value="獲得關卡&lt;br&gt;對應的Manager" style="shape=umlFrame;whiteSpace=wrap;html=1;pointerEvents=0;width=100;height=40;opacity=30;dashed=1;" parent="1" vertex="1">
          <mxGeometry x="60" y="160" width="640" height="140" as="geometry" />
        </mxCell>
        <mxCell id="sckDNsP2krGbwJ6CbzbV-2" value="" style="edgeStyle=orthogonalEdgeStyle;rounded=0;orthogonalLoop=1;jettySize=auto;html=1;" edge="1" parent="1" source="_39_yMaiTHqc9KQaCo4u-41" target="sckDNsP2krGbwJ6CbzbV-1">
          <mxGeometry relative="1" as="geometry" />
        </mxCell>
        <mxCell id="_39_yMaiTHqc9KQaCo4u-41" value="開始第一個任務" style="rounded=0;whiteSpace=wrap;html=1;fillColor=#dae8fc;strokeColor=#6c8ebf;" parent="1" vertex="1">
          <mxGeometry x="630" y="671.33" width="120" height="60" as="geometry" />
        </mxCell>
        <UserObject label="遊戲進行流程" link="data:page/id,Emk5gqJCA7uwcWoGW0Ix" id="sckDNsP2krGbwJ6CbzbV-1">
          <mxCell style="shape=singleArrow;whiteSpace=wrap;html=1;arrowWidth=0.4;arrowSize=0.4;fillColor=#e1d5e7;strokeColor=#9673a6;rounded=0;" vertex="1" parent="1">
            <mxGeometry x="800" y="671.33" width="110" height="60" as="geometry" />
          </mxCell>
        </UserObject>
      </root>
    </mxGraphModel>
  </diagram>
  <diagram id="Emk5gqJCA7uwcWoGW0Ix" name="遊戲進行流程">
    <mxGraphModel dx="1720" dy="2111" grid="1" gridSize="10" guides="1" tooltips="1" connect="1" arrows="1" fold="1" page="1" pageScale="1" pageWidth="850" pageHeight="1100" math="0" shadow="0">
      <root>
        <mxCell id="0" />
        <mxCell id="1" parent="0" />
        <mxCell id="ixTD4fNLXivYWzQbETBr-20" value="關閉手冊" style="edgeStyle=orthogonalEdgeStyle;rounded=0;orthogonalLoop=1;jettySize=auto;html=1;exitX=1;exitY=0;exitDx=0;exitDy=0;entryX=0;entryY=0.5;entryDx=0;entryDy=0;opacity=50;" edge="1" parent="1" source="ixTD4fNLXivYWzQbETBr-18" target="F2sBNsnojIDMVPlAFSET-1">
          <mxGeometry x="0.3617" relative="1" as="geometry">
            <Array as="points">
              <mxPoint x="950" y="390" />
              <mxPoint x="950" y="110" />
            </Array>
            <mxPoint as="offset" />
          </mxGeometry>
        </mxCell>
        <mxCell id="lCildkQNl4lmmsB_crwy-1" value="" style="edgeStyle=orthogonalEdgeStyle;rounded=0;orthogonalLoop=1;jettySize=auto;html=1;" edge="1" parent="1" source="xMCTLvCi9Sm0A8B8O783-11" target="xMCTLvCi9Sm0A8B8O783-15">
          <mxGeometry relative="1" as="geometry" />
        </mxCell>
        <mxCell id="xMCTLvCi9Sm0A8B8O783-11" value="執行 Git 指令" style="shape=parallelogram;perimeter=parallelogramPerimeter;whiteSpace=wrap;html=1;fixedSize=1;fillColor=#d5e8d4;strokeColor=#82b366;" vertex="1" parent="1">
          <mxGeometry x="1260" y="190" width="120" height="60" as="geometry" />
        </mxCell>
        <mxCell id="xMCTLvCi9Sm0A8B8O783-13" value="開啟視窗&lt;br&gt;or 其他功能" style="shape=parallelogram;perimeter=parallelogramPerimeter;whiteSpace=wrap;html=1;fixedSize=1;fillColor=#d5e8d4;strokeColor=#82b366;" vertex="1" parent="1">
          <mxGeometry x="1100" y="190" width="120" height="60" as="geometry" />
        </mxCell>
        <mxCell id="ixTD4fNLXivYWzQbETBr-5" value="" style="edgeStyle=orthogonalEdgeStyle;rounded=0;orthogonalLoop=1;jettySize=auto;html=1;entryX=0;entryY=0.5;entryDx=0;entryDy=0;exitX=1.022;exitY=0.592;exitDx=0;exitDy=0;exitPerimeter=0;" edge="1" parent="1" source="xMCTLvCi9Sm0A8B8O783-15" target="ixTD4fNLXivYWzQbETBr-4">
          <mxGeometry relative="1" as="geometry" />
        </mxCell>
        <mxCell id="xMCTLvCi9Sm0A8B8O783-15" value="Game Manual" style="shape=cylinder3;whiteSpace=wrap;html=1;boundedLbl=1;backgroundOutline=1;size=15;fillColor=#f8cecc;strokeColor=#b85450;" vertex="1" parent="1">
          <mxGeometry x="1275" y="300" width="90" height="80" as="geometry" />
        </mxCell>
        <mxCell id="ixTD4fNLXivYWzQbETBr-7" value="False" style="edgeStyle=orthogonalEdgeStyle;rounded=0;orthogonalLoop=1;jettySize=auto;html=1;" edge="1" parent="1" source="xMCTLvCi9Sm0A8B8O783-20" target="xMCTLvCi9Sm0A8B8O783-24">
          <mxGeometry relative="1" as="geometry">
            <Array as="points">
              <mxPoint x="1320" y="590" />
            </Array>
          </mxGeometry>
        </mxCell>
        <mxCell id="ixTD4fNLXivYWzQbETBr-11" value="True" style="edgeStyle=orthogonalEdgeStyle;rounded=0;orthogonalLoop=1;jettySize=auto;html=1;entryX=0.5;entryY=0;entryDx=0;entryDy=0;entryPerimeter=0;" edge="1" parent="1" source="xMCTLvCi9Sm0A8B8O783-20" target="F2sBNsnojIDMVPlAFSET-8">
          <mxGeometry x="-0.4783" relative="1" as="geometry">
            <mxPoint x="1160" y="560" as="targetPoint" />
            <mxPoint as="offset" />
          </mxGeometry>
        </mxCell>
        <mxCell id="xMCTLvCi9Sm0A8B8O783-20" value="指令&lt;br&gt;可以使用嗎？" style="rhombus;whiteSpace=wrap;html=1;fillColor=#ffe6cc;strokeColor=#d79b00;" vertex="1" parent="1">
          <mxGeometry x="1280" y="410" width="80" height="80" as="geometry" />
        </mxCell>
        <mxCell id="ixTD4fNLXivYWzQbETBr-13" style="edgeStyle=orthogonalEdgeStyle;rounded=0;orthogonalLoop=1;jettySize=auto;html=1;opacity=40;" edge="1" parent="1" source="xMCTLvCi9Sm0A8B8O783-24" target="F2sBNsnojIDMVPlAFSET-1">
          <mxGeometry relative="1" as="geometry">
            <Array as="points">
              <mxPoint x="1650" y="590" />
              <mxPoint x="1650" y="110" />
            </Array>
          </mxGeometry>
        </mxCell>
        <mxCell id="6Y3Zxh7PQekRsmRXVqNH-3" value="回到任務進行中" style="edgeLabel;html=1;align=center;verticalAlign=middle;resizable=0;points=[];" vertex="1" connectable="0" parent="ixTD4fNLXivYWzQbETBr-13">
          <mxGeometry x="-0.7333" y="4" relative="1" as="geometry">
            <mxPoint as="offset" />
          </mxGeometry>
        </mxCell>
        <mxCell id="xMCTLvCi9Sm0A8B8O783-24" value="回傳警告訊息" style="rounded=0;whiteSpace=wrap;html=1;fillColor=#dae8fc;strokeColor=#6c8ebf;" vertex="1" parent="1">
          <mxGeometry x="1270" y="560" width="100" height="60" as="geometry" />
        </mxCell>
        <mxCell id="F2sBNsnojIDMVPlAFSET-2" style="edgeStyle=orthogonalEdgeStyle;rounded=0;orthogonalLoop=1;jettySize=auto;html=1;exitX=0;exitY=0.5;exitDx=0;exitDy=0;entryX=0.5;entryY=0;entryDx=0;entryDy=0;" edge="1" parent="1" source="F2sBNsnojIDMVPlAFSET-1" target="F2sBNsnojIDMVPlAFSET-3">
          <mxGeometry relative="1" as="geometry">
            <mxPoint x="970" y="180.0000000000001" as="targetPoint" />
          </mxGeometry>
        </mxCell>
        <mxCell id="F2sBNsnojIDMVPlAFSET-5" value="" style="edgeStyle=orthogonalEdgeStyle;rounded=0;orthogonalLoop=1;jettySize=auto;html=1;" edge="1" parent="1" source="F2sBNsnojIDMVPlAFSET-1" target="xMCTLvCi9Sm0A8B8O783-13">
          <mxGeometry relative="1" as="geometry" />
        </mxCell>
        <mxCell id="F2sBNsnojIDMVPlAFSET-6" value="" style="edgeStyle=orthogonalEdgeStyle;rounded=0;orthogonalLoop=1;jettySize=auto;html=1;" edge="1" parent="1" source="F2sBNsnojIDMVPlAFSET-1" target="xMCTLvCi9Sm0A8B8O783-11">
          <mxGeometry relative="1" as="geometry" />
        </mxCell>
        <mxCell id="ixTD4fNLXivYWzQbETBr-15" style="edgeStyle=orthogonalEdgeStyle;rounded=0;orthogonalLoop=1;jettySize=auto;html=1;exitX=0;exitY=0.5;exitDx=0;exitDy=0;entryX=0.5;entryY=0;entryDx=0;entryDy=0;" edge="1" parent="1" source="F2sBNsnojIDMVPlAFSET-1" target="ixTD4fNLXivYWzQbETBr-14">
          <mxGeometry relative="1" as="geometry" />
        </mxCell>
        <mxCell id="F2sBNsnojIDMVPlAFSET-1" value="當前任務進行中" style="rounded=1;whiteSpace=wrap;html=1;fillColor=#dae8fc;strokeColor=#6c8ebf;" vertex="1" parent="1">
          <mxGeometry x="1100" y="80" width="120" height="60" as="geometry" />
        </mxCell>
        <mxCell id="w1lqQYtzTdu0nrk2h8ba-7" value="" style="edgeStyle=orthogonalEdgeStyle;rounded=0;orthogonalLoop=1;jettySize=auto;html=1;" edge="1" parent="1" source="F2sBNsnojIDMVPlAFSET-3" target="w1lqQYtzTdu0nrk2h8ba-6">
          <mxGeometry relative="1" as="geometry" />
        </mxCell>
        <mxCell id="F2sBNsnojIDMVPlAFSET-3" value="協助功能按鈕" style="shape=parallelogram;perimeter=parallelogramPerimeter;whiteSpace=wrap;html=1;fixedSize=1;fillColor=#d5e8d4;strokeColor=#82b366;" vertex="1" parent="1">
          <mxGeometry x="510" y="190" width="120" height="60" as="geometry" />
        </mxCell>
        <mxCell id="6Y3Zxh7PQekRsmRXVqNH-5" value="" style="edgeStyle=orthogonalEdgeStyle;rounded=0;orthogonalLoop=1;jettySize=auto;html=1;" edge="1" parent="1" source="F2sBNsnojIDMVPlAFSET-8" target="6Y3Zxh7PQekRsmRXVqNH-4">
          <mxGeometry relative="1" as="geometry" />
        </mxCell>
        <mxCell id="F2sBNsnojIDMVPlAFSET-8" value="Quest Tracker&lt;br&gt;" style="shape=cylinder3;whiteSpace=wrap;html=1;boundedLbl=1;backgroundOutline=1;size=15;fillColor=#f8cecc;strokeColor=#b85450;" vertex="1" parent="1">
          <mxGeometry x="1115" y="520" width="90" height="80" as="geometry" />
        </mxCell>
        <mxCell id="ixTD4fNLXivYWzQbETBr-6" value="&#xa;&lt;span style=&quot;color: rgb(0, 0, 0); font-family: Helvetica; font-size: 11px; font-style: normal; font-variant-ligatures: normal; font-variant-caps: normal; font-weight: 400; letter-spacing: normal; orphans: 2; text-align: center; text-indent: 0px; text-transform: none; widows: 2; word-spacing: 0px; -webkit-text-stroke-width: 0px; background-color: rgb(255, 255, 255); text-decoration-thickness: initial; text-decoration-style: initial; text-decoration-color: initial; float: none; display: inline !important;&quot;&gt;查找這個指令是否可以使用&lt;/span&gt;&#xa;&#xa;" style="edgeStyle=orthogonalEdgeStyle;rounded=0;orthogonalLoop=1;jettySize=auto;html=1;entryX=1;entryY=0.5;entryDx=0;entryDy=0;exitX=0.5;exitY=1;exitDx=0;exitDy=0;" edge="1" parent="1" source="ixTD4fNLXivYWzQbETBr-1" target="xMCTLvCi9Sm0A8B8O783-20">
          <mxGeometry relative="1" as="geometry">
            <mxPoint x="1550" y="391" as="sourcePoint" />
            <mxPoint x="1490" y="569" as="targetPoint" />
          </mxGeometry>
        </mxCell>
        <mxCell id="ixTD4fNLXivYWzQbETBr-1" value="這個指令可以使用與本關嗎？" style="swimlane;fontStyle=0;childLayout=stackLayout;horizontal=1;startSize=26;fillColor=#f8cecc;horizontalStack=0;resizeParent=1;resizeParentMax=0;resizeLast=0;collapsible=1;marginBottom=0;whiteSpace=wrap;html=1;strokeColor=#b85450;" vertex="1" parent="1">
          <mxGeometry x="1420" y="260" width="190" height="104" as="geometry" />
        </mxCell>
        <mxCell id="ixTD4fNLXivYWzQbETBr-2" value="+ 指令名稱: string" style="text;strokeColor=#b85450;fillColor=#f8cecc;align=left;verticalAlign=top;spacingLeft=4;spacingRight=4;overflow=hidden;rotatable=0;points=[[0,0.5],[1,0.5]];portConstraint=eastwest;whiteSpace=wrap;html=1;" vertex="1" parent="ixTD4fNLXivYWzQbETBr-1">
          <mxGeometry y="26" width="190" height="26" as="geometry" />
        </mxCell>
        <mxCell id="ixTD4fNLXivYWzQbETBr-3" value="+ 解鎖到的進度: int" style="text;strokeColor=#b85450;fillColor=#f8cecc;align=left;verticalAlign=top;spacingLeft=4;spacingRight=4;overflow=hidden;rotatable=0;points=[[0,0.5],[1,0.5]];portConstraint=eastwest;whiteSpace=wrap;html=1;" vertex="1" parent="ixTD4fNLXivYWzQbETBr-1">
          <mxGeometry y="52" width="190" height="26" as="geometry" />
        </mxCell>
        <mxCell id="ixTD4fNLXivYWzQbETBr-4" value="+ 可以用於本關:&amp;nbsp; bool" style="text;strokeColor=#b85450;fillColor=#f8cecc;align=left;verticalAlign=top;spacingLeft=4;spacingRight=4;overflow=hidden;rotatable=0;points=[[0,0.5],[1,0.5]];portConstraint=eastwest;whiteSpace=wrap;html=1;" vertex="1" parent="ixTD4fNLXivYWzQbETBr-1">
          <mxGeometry y="78" width="190" height="26" as="geometry" />
        </mxCell>
        <mxCell id="ixTD4fNLXivYWzQbETBr-17" value="" style="edgeStyle=orthogonalEdgeStyle;rounded=0;orthogonalLoop=1;jettySize=auto;html=1;" edge="1" parent="1" source="ixTD4fNLXivYWzQbETBr-14" target="ixTD4fNLXivYWzQbETBr-16">
          <mxGeometry relative="1" as="geometry" />
        </mxCell>
        <mxCell id="ixTD4fNLXivYWzQbETBr-14" value="遊戲手冊按鈕" style="shape=parallelogram;perimeter=parallelogramPerimeter;whiteSpace=wrap;html=1;fixedSize=1;fillColor=#d5e8d4;strokeColor=#82b366;" vertex="1" parent="1">
          <mxGeometry x="870" y="190" width="120" height="60" as="geometry" />
        </mxCell>
        <mxCell id="ixTD4fNLXivYWzQbETBr-19" value="" style="edgeStyle=orthogonalEdgeStyle;rounded=0;orthogonalLoop=1;jettySize=auto;html=1;" edge="1" parent="1" source="ixTD4fNLXivYWzQbETBr-16" target="ixTD4fNLXivYWzQbETBr-18">
          <mxGeometry relative="1" as="geometry" />
        </mxCell>
        <mxCell id="ixTD4fNLXivYWzQbETBr-16" value="Game Manual" style="shape=cylinder3;whiteSpace=wrap;html=1;boundedLbl=1;backgroundOutline=1;size=15;fillColor=#f8cecc;strokeColor=#b85450;" vertex="1" parent="1">
          <mxGeometry x="885" y="284" width="90" height="80" as="geometry" />
        </mxCell>
        <mxCell id="ixTD4fNLXivYWzQbETBr-18" value="開啟手冊內容" style="rounded=0;whiteSpace=wrap;html=1;fillColor=#dae8fc;strokeColor=#6c8ebf;" vertex="1" parent="1">
          <mxGeometry x="869.9955172413795" y="390" width="120" height="60" as="geometry" />
        </mxCell>
        <mxCell id="u8_6ei6-XSVXC7_WoGH4-1" style="edgeStyle=orthogonalEdgeStyle;rounded=0;orthogonalLoop=1;jettySize=auto;html=1;exitX=0.5;exitY=0.7;exitDx=0;exitDy=0;exitPerimeter=0;entryX=0.5;entryY=0;entryDx=0;entryDy=0;" edge="1" parent="1" source="L56FeA8CdEcjDanNiA5X-1" target="F2sBNsnojIDMVPlAFSET-1">
          <mxGeometry relative="1" as="geometry" />
        </mxCell>
        <UserObject label="進入遊戲場景（初始化）" link="data:page/id,w2h1bLGhRpKSe5cGu9_I" id="L56FeA8CdEcjDanNiA5X-1">
          <mxCell style="shape=singleArrow;whiteSpace=wrap;html=1;arrowWidth=0.4;arrowSize=0.4;fillColor=#e1d5e7;strokeColor=#9673a6;rounded=0;flipH=1;points=[[0,0,0,0,18],[0,0,0,0,42],[0,0,0,43.5,18],[0,0,0,43.5,42],[0,0,0,87,0],[0,0,0,87,60],[0,0.5,0,0,0],[0.5,0.3,0,0,0],[0.5,0.7,0,0,0],[1,0.5,0,0,0]];opacity=50;" vertex="1" parent="1">
            <mxGeometry x="1087.5" y="-20" width="145" height="60" as="geometry" />
          </mxCell>
        </UserObject>
        <mxCell id="6Y3Zxh7PQekRsmRXVqNH-1" style="edgeStyle=orthogonalEdgeStyle;rounded=0;orthogonalLoop=1;jettySize=auto;html=1;entryX=0.5;entryY=0;entryDx=0;entryDy=0;entryPerimeter=0;" edge="1" parent="1" source="xMCTLvCi9Sm0A8B8O783-13" target="F2sBNsnojIDMVPlAFSET-8">
          <mxGeometry relative="1" as="geometry" />
        </mxCell>
        <mxCell id="6Y3Zxh7PQekRsmRXVqNH-7" value="" style="edgeStyle=orthogonalEdgeStyle;rounded=0;orthogonalLoop=1;jettySize=auto;html=1;" edge="1" parent="1" source="6Y3Zxh7PQekRsmRXVqNH-4" target="6Y3Zxh7PQekRsmRXVqNH-6">
          <mxGeometry relative="1" as="geometry" />
        </mxCell>
        <mxCell id="6Y3Zxh7PQekRsmRXVqNH-11" value="True" style="edgeLabel;html=1;align=center;verticalAlign=middle;resizable=0;points=[];" vertex="1" connectable="0" parent="6Y3Zxh7PQekRsmRXVqNH-7">
          <mxGeometry x="-0.4187" y="5" relative="1" as="geometry">
            <mxPoint x="-23" y="-5" as="offset" />
          </mxGeometry>
        </mxCell>
        <mxCell id="6Y3Zxh7PQekRsmRXVqNH-10" style="edgeStyle=orthogonalEdgeStyle;rounded=0;orthogonalLoop=1;jettySize=auto;html=1;entryX=0.5;entryY=0;entryDx=0;entryDy=0;exitX=1;exitY=0.5;exitDx=0;exitDy=0;" edge="1" parent="1" source="6Y3Zxh7PQekRsmRXVqNH-4" target="6Y3Zxh7PQekRsmRXVqNH-8">
          <mxGeometry relative="1" as="geometry">
            <mxPoint x="1200" y="620" as="sourcePoint" />
            <mxPoint x="1255" y="680" as="targetPoint" />
            <Array as="points">
              <mxPoint x="1255" y="690" />
            </Array>
          </mxGeometry>
        </mxCell>
        <mxCell id="6Y3Zxh7PQekRsmRXVqNH-12" value="False" style="edgeLabel;html=1;align=center;verticalAlign=middle;resizable=0;points=[];" vertex="1" connectable="0" parent="6Y3Zxh7PQekRsmRXVqNH-10">
          <mxGeometry x="0.0528" y="1" relative="1" as="geometry">
            <mxPoint x="-1" y="-3" as="offset" />
          </mxGeometry>
        </mxCell>
        <mxCell id="6Y3Zxh7PQekRsmRXVqNH-4" value="&lt;b&gt;(Quest Filter)&lt;br style=&quot;border-color: var(--border-color);&quot;&gt;&lt;/b&gt;操作符合當前目標需求嗎？" style="rhombus;whiteSpace=wrap;html=1;fillColor=#ffe6cc;strokeColor=#d79b00;" vertex="1" parent="1">
          <mxGeometry x="1120" y="650" width="80" height="80" as="geometry" />
        </mxCell>
        <mxCell id="6Y3Zxh7PQekRsmRXVqNH-13" style="edgeStyle=orthogonalEdgeStyle;rounded=0;orthogonalLoop=1;jettySize=auto;html=1;exitX=0.25;exitY=0;exitDx=0;exitDy=0;entryX=0;entryY=0.5;entryDx=0;entryDy=0;opacity=40;" edge="1" parent="1" source="6Y3Zxh7PQekRsmRXVqNH-6" target="F2sBNsnojIDMVPlAFSET-1">
          <mxGeometry relative="1" as="geometry">
            <Array as="points">
              <mxPoint x="1040" y="750" />
              <mxPoint x="1040" y="110" />
            </Array>
          </mxGeometry>
        </mxCell>
        <mxCell id="6Y3Zxh7PQekRsmRXVqNH-14" value="未完成目標&lt;br&gt;回到任務進行中" style="edgeLabel;html=1;align=center;verticalAlign=middle;resizable=0;points=[];" vertex="1" connectable="0" parent="6Y3Zxh7PQekRsmRXVqNH-13">
          <mxGeometry x="-0.6559" relative="1" as="geometry">
            <mxPoint as="offset" />
          </mxGeometry>
        </mxCell>
        <mxCell id="6Y3Zxh7PQekRsmRXVqNH-16" value="" style="edgeStyle=orthogonalEdgeStyle;rounded=0;orthogonalLoop=1;jettySize=auto;html=1;" edge="1" parent="1" source="6Y3Zxh7PQekRsmRXVqNH-6" target="6Y3Zxh7PQekRsmRXVqNH-15">
          <mxGeometry relative="1" as="geometry" />
        </mxCell>
        <mxCell id="6Y3Zxh7PQekRsmRXVqNH-17" value="完成目標" style="edgeLabel;html=1;align=center;verticalAlign=middle;resizable=0;points=[];" vertex="1" connectable="0" parent="6Y3Zxh7PQekRsmRXVqNH-16">
          <mxGeometry x="-0.1721" relative="1" as="geometry">
            <mxPoint as="offset" />
          </mxGeometry>
        </mxCell>
        <mxCell id="6Y3Zxh7PQekRsmRXVqNH-6" value="&lt;b&gt;(Quest Valider)&lt;br&gt;&lt;/b&gt;判定這個操作&lt;br&gt;是否完成目標" style="whiteSpace=wrap;html=1;fillColor=#dae8fc;strokeColor=#6c8ebf;" vertex="1" parent="1">
          <mxGeometry x="995" y="750" width="120" height="60" as="geometry" />
        </mxCell>
        <mxCell id="6Y3Zxh7PQekRsmRXVqNH-28" style="edgeStyle=orthogonalEdgeStyle;rounded=0;orthogonalLoop=1;jettySize=auto;html=1;entryX=1;entryY=0.5;entryDx=0;entryDy=0;exitX=1;exitY=0.5;exitDx=0;exitDy=0;opacity=40;" edge="1" parent="1" source="6Y3Zxh7PQekRsmRXVqNH-8" target="F2sBNsnojIDMVPlAFSET-1">
          <mxGeometry relative="1" as="geometry">
            <mxPoint x="1685.0588235294122" y="750" as="sourcePoint" />
            <mxPoint x="1650" y="110" as="targetPoint" />
            <Array as="points">
              <mxPoint x="1650" y="780" />
              <mxPoint x="1650" y="110" />
            </Array>
          </mxGeometry>
        </mxCell>
        <mxCell id="6Y3Zxh7PQekRsmRXVqNH-29" value="回到任務進行中" style="edgeLabel;html=1;align=center;verticalAlign=middle;resizable=0;points=[];" vertex="1" connectable="0" parent="6Y3Zxh7PQekRsmRXVqNH-28">
          <mxGeometry x="-0.703" y="4" relative="1" as="geometry">
            <mxPoint as="offset" />
          </mxGeometry>
        </mxCell>
        <mxCell id="6Y3Zxh7PQekRsmRXVqNH-8" value="回傳警告訊息&lt;br&gt;標記：✅" style="whiteSpace=wrap;html=1;fillColor=#dae8fc;strokeColor=#6c8ebf;" vertex="1" parent="1">
          <mxGeometry x="1205" y="750" width="100" height="60" as="geometry" />
        </mxCell>
        <mxCell id="6Y3Zxh7PQekRsmRXVqNH-23" value="" style="edgeStyle=orthogonalEdgeStyle;rounded=0;orthogonalLoop=1;jettySize=auto;html=1;" edge="1" parent="1" source="6Y3Zxh7PQekRsmRXVqNH-15" target="6Y3Zxh7PQekRsmRXVqNH-22">
          <mxGeometry relative="1" as="geometry" />
        </mxCell>
        <mxCell id="6Y3Zxh7PQekRsmRXVqNH-15" value="根據完成狀態&lt;br&gt;獲得分數" style="whiteSpace=wrap;html=1;fillColor=#dae8fc;strokeColor=#6c8ebf;" vertex="1" parent="1">
          <mxGeometry x="995" y="850" width="120" height="60" as="geometry" />
        </mxCell>
        <mxCell id="6Y3Zxh7PQekRsmRXVqNH-18" value="Game Manager&lt;br&gt;(GameData Manager)" style="shape=cylinder3;whiteSpace=wrap;html=1;boundedLbl=1;backgroundOutline=1;size=15;fillColor=#f8cecc;strokeColor=#b85450;" vertex="1" parent="1">
          <mxGeometry x="1190" y="840" width="130" height="80" as="geometry" />
        </mxCell>
        <mxCell id="6Y3Zxh7PQekRsmRXVqNH-21" value="&lt;span style=&quot;color: rgb(0, 0, 0); font-family: Helvetica; font-size: 11px; font-style: normal; font-variant-ligatures: normal; font-variant-caps: normal; font-weight: 400; letter-spacing: normal; orphans: 2; text-align: center; text-indent: 0px; text-transform: none; widows: 2; word-spacing: 0px; -webkit-text-stroke-width: 0px; background-color: rgb(255, 255, 255); text-decoration-thickness: initial; text-decoration-style: initial; text-decoration-color: initial; float: none; display: inline !important;&quot;&gt;記錄狀態&lt;/span&gt;" style="endArrow=classic;startArrow=classic;html=1;rounded=0;exitX=1;exitY=0.5;exitDx=0;exitDy=0;entryX=0;entryY=0.5;entryDx=0;entryDy=0;entryPerimeter=0;" edge="1" parent="1" source="6Y3Zxh7PQekRsmRXVqNH-15" target="6Y3Zxh7PQekRsmRXVqNH-18">
          <mxGeometry width="50" height="50" relative="1" as="geometry">
            <mxPoint x="1150" y="863.3600000000001" as="sourcePoint" />
            <mxPoint x="1454.52" y="820" as="targetPoint" />
            <Array as="points" />
            <mxPoint as="offset" />
          </mxGeometry>
        </mxCell>
        <mxCell id="DBEBQdEUPsQynktlNXna-4" value="" style="edgeStyle=orthogonalEdgeStyle;rounded=0;orthogonalLoop=1;jettySize=auto;html=1;" edge="1" parent="1" source="6Y3Zxh7PQekRsmRXVqNH-22" target="DBEBQdEUPsQynktlNXna-3">
          <mxGeometry relative="1" as="geometry" />
        </mxCell>
        <mxCell id="6Y3Zxh7PQekRsmRXVqNH-22" value="Quest Tracker" style="shape=cylinder3;whiteSpace=wrap;html=1;boundedLbl=1;backgroundOutline=1;size=15;fillColor=#f8cecc;strokeColor=#b85450;" vertex="1" parent="1">
          <mxGeometry x="1010" y="930" width="90" height="80" as="geometry" />
        </mxCell>
        <mxCell id="jWLxuRp6a7rciEPFDUSf-5" value="" style="edgeStyle=orthogonalEdgeStyle;rounded=0;orthogonalLoop=1;jettySize=auto;html=1;" edge="1" parent="1" target="jWLxuRp6a7rciEPFDUSf-4">
          <mxGeometry relative="1" as="geometry">
            <mxPoint x="564.94" y="1210" as="sourcePoint" />
          </mxGeometry>
        </mxCell>
        <mxCell id="DBEBQdEUPsQynktlNXna-1" value="Random Data" style="shape=cylinder3;whiteSpace=wrap;html=1;boundedLbl=1;backgroundOutline=1;size=15;fillColor=#f8cecc;strokeColor=#b85450;" vertex="1" parent="1">
          <mxGeometry x="519.94" y="1140" width="90" height="80" as="geometry" />
        </mxCell>
        <mxCell id="DBEBQdEUPsQynktlNXna-5" style="edgeStyle=orthogonalEdgeStyle;rounded=0;orthogonalLoop=1;jettySize=auto;html=1;" edge="1" parent="1" source="DBEBQdEUPsQynktlNXna-3" target="DBEBQdEUPsQynktlNXna-1">
          <mxGeometry relative="1" as="geometry" />
        </mxCell>
        <mxCell id="DBEBQdEUPsQynktlNXna-6" value="自行練習" style="edgeLabel;html=1;align=center;verticalAlign=middle;resizable=0;points=[];" vertex="1" connectable="0" parent="DBEBQdEUPsQynktlNXna-5">
          <mxGeometry x="-0.0716" relative="1" as="geometry">
            <mxPoint as="offset" />
          </mxGeometry>
        </mxCell>
        <mxCell id="DBEBQdEUPsQynktlNXna-8" value="" style="edgeStyle=orthogonalEdgeStyle;rounded=0;orthogonalLoop=1;jettySize=auto;html=1;" edge="1" parent="1" source="DBEBQdEUPsQynktlNXna-3" target="DBEBQdEUPsQynktlNXna-7">
          <mxGeometry relative="1" as="geometry" />
        </mxCell>
        <mxCell id="DBEBQdEUPsQynktlNXna-9" value="教學關卡" style="edgeLabel;html=1;align=center;verticalAlign=middle;resizable=0;points=[];" vertex="1" connectable="0" parent="DBEBQdEUPsQynktlNXna-8">
          <mxGeometry x="-0.1312" relative="1" as="geometry">
            <mxPoint as="offset" />
          </mxGeometry>
        </mxCell>
        <mxCell id="DBEBQdEUPsQynktlNXna-3" value="教學關卡&lt;br&gt;or 自行練習" style="rhombus;whiteSpace=wrap;html=1;fillColor=#ffe6cc;strokeColor=#d79b00;" vertex="1" parent="1">
          <mxGeometry x="1015" y="1030" width="80" height="80" as="geometry" />
        </mxCell>
        <mxCell id="hGiro8s9CFbE4qeRzDRp-2" value="" style="edgeStyle=orthogonalEdgeStyle;rounded=0;orthogonalLoop=1;jettySize=auto;html=1;" edge="1" parent="1" source="DBEBQdEUPsQynktlNXna-7" target="hGiro8s9CFbE4qeRzDRp-1">
          <mxGeometry relative="1" as="geometry" />
        </mxCell>
        <mxCell id="jWLxuRp6a7rciEPFDUSf-1" style="edgeStyle=orthogonalEdgeStyle;rounded=0;orthogonalLoop=1;jettySize=auto;html=1;" edge="1" parent="1" source="DBEBQdEUPsQynktlNXna-7" target="DBEBQdEUPsQynktlNXna-1">
          <mxGeometry relative="1" as="geometry" />
        </mxCell>
        <mxCell id="jWLxuRp6a7rciEPFDUSf-3" value="進入到自行練習階段" style="edgeLabel;html=1;align=center;verticalAlign=middle;resizable=0;points=[];" vertex="1" connectable="0" parent="jWLxuRp6a7rciEPFDUSf-1">
          <mxGeometry x="0.0862" y="-1" relative="1" as="geometry">
            <mxPoint as="offset" />
          </mxGeometry>
        </mxCell>
        <mxCell id="DBEBQdEUPsQynktlNXna-7" value="是否有劇情&lt;br&gt;有 -&amp;gt; 顯示對話&lt;br&gt;無 -&amp;gt; 繼續遊戲" style="whiteSpace=wrap;html=1;fillColor=#dae8fc;strokeColor=#6c8ebf;" vertex="1" parent="1">
          <mxGeometry x="995" y="1150" width="120" height="60" as="geometry" />
        </mxCell>
        <mxCell id="hGiro8s9CFbE4qeRzDRp-3" style="edgeStyle=orthogonalEdgeStyle;rounded=0;orthogonalLoop=1;jettySize=auto;html=1;entryX=1;entryY=0.5;entryDx=0;entryDy=0;opacity=50;" edge="1" parent="1" source="hGiro8s9CFbE4qeRzDRp-1" target="F2sBNsnojIDMVPlAFSET-1">
          <mxGeometry relative="1" as="geometry">
            <mxPoint x="1650" y="100" as="targetPoint" />
            <Array as="points">
              <mxPoint x="1650" y="1260" />
              <mxPoint x="1650" y="110" />
            </Array>
          </mxGeometry>
        </mxCell>
        <mxCell id="hGiro8s9CFbE4qeRzDRp-5" value="回到任務進行中" style="edgeLabel;html=1;align=center;verticalAlign=middle;resizable=0;points=[];" vertex="1" connectable="0" parent="hGiro8s9CFbE4qeRzDRp-3">
          <mxGeometry x="-0.8562" y="3" relative="1" as="geometry">
            <mxPoint as="offset" />
          </mxGeometry>
        </mxCell>
        <mxCell id="s7X27T3UPjLkiVih65jg-2" value="沒有任務了" style="edgeStyle=orthogonalEdgeStyle;rounded=0;orthogonalLoop=1;jettySize=auto;html=1;" edge="1" parent="1" source="hGiro8s9CFbE4qeRzDRp-1" target="s7X27T3UPjLkiVih65jg-1">
          <mxGeometry x="0.0154" relative="1" as="geometry">
            <mxPoint as="offset" />
          </mxGeometry>
        </mxCell>
        <mxCell id="hGiro8s9CFbE4qeRzDRp-1" value="開始下一個任務" style="rounded=0;whiteSpace=wrap;html=1;fillColor=#dae8fc;strokeColor=#6c8ebf;" vertex="1" parent="1">
          <mxGeometry x="995" y="1230" width="120" height="60" as="geometry" />
        </mxCell>
        <mxCell id="jpz0JnboHG7_QFGoveql-2" value="重玩本關" style="edgeStyle=orthogonalEdgeStyle;rounded=0;orthogonalLoop=1;jettySize=auto;html=1;entryX=0.5;entryY=0.3;entryDx=0;entryDy=0;entryPerimeter=0;" edge="1" parent="1" source="s7X27T3UPjLkiVih65jg-1" target="jpz0JnboHG7_QFGoveql-1">
          <mxGeometry relative="1" as="geometry" />
        </mxCell>
        <mxCell id="s7X27T3UPjLkiVih65jg-1" value="通過關卡！&lt;br&gt;顯示結算畫面" style="rounded=0;whiteSpace=wrap;html=1;fillColor=#dae8fc;strokeColor=#6c8ebf;" vertex="1" parent="1">
          <mxGeometry x="995" y="1340" width="120" height="60" as="geometry" />
        </mxCell>
        <UserObject label="進入遊戲場景（初始化）" link="data:page/id,w2h1bLGhRpKSe5cGu9_I" id="jpz0JnboHG7_QFGoveql-1">
          <mxCell style="shape=singleArrow;whiteSpace=wrap;html=1;arrowWidth=0.4;arrowSize=0.4;fillColor=#e1d5e7;strokeColor=#9673a6;rounded=0;points=[[0,0,0,0,18],[0,0,0,0,42],[0,0,0,33,18],[0,0,0,33,42],[0,0,0,66,0],[0,0,0,66,60],[0,0.5,0,0,0],[0.5,0.3,0,0,0],[1,0.5,0,0,0]];" vertex="1" parent="1">
            <mxGeometry x="870" y="1440" width="140" height="60" as="geometry" />
          </mxCell>
        </UserObject>
        <UserObject label="選擇關卡場景" link="data:page/id,FMEm7LZYtFMIhO8RzOJS" id="jpz0JnboHG7_QFGoveql-3">
          <mxCell style="shape=singleArrow;whiteSpace=wrap;html=1;arrowWidth=0.4;arrowSize=0.4;fillColor=#e1d5e7;strokeColor=#9673a6;rounded=0;points=[[0,0,0,0,18],[0,0,0,0,42],[0,0,0,33,18],[0,0,0,33,42],[0,0,0,66,0],[0,0,0,66,60],[0,0.5,0,0,0],[0.5,0.3,0,0,0],[1,0.5,0,0,0]];" vertex="1" parent="1">
            <mxGeometry x="1115" y="1440" width="110" height="60" as="geometry" />
          </mxCell>
        </UserObject>
        <mxCell id="jpz0JnboHG7_QFGoveql-4" value="選擇其他關卡" style="edgeStyle=orthogonalEdgeStyle;rounded=0;orthogonalLoop=1;jettySize=auto;html=1;entryX=0.5;entryY=0.3;entryDx=0;entryDy=0;entryPerimeter=0;" edge="1" parent="1" source="s7X27T3UPjLkiVih65jg-1" target="jpz0JnboHG7_QFGoveql-3">
          <mxGeometry relative="1" as="geometry" />
        </mxCell>
        <mxCell id="w1lqQYtzTdu0nrk2h8ba-39" style="edgeStyle=orthogonalEdgeStyle;rounded=0;orthogonalLoop=1;jettySize=auto;html=1;entryX=0.5;entryY=0;entryDx=0;entryDy=0;" edge="1" parent="1" source="jWLxuRp6a7rciEPFDUSf-4" target="w1lqQYtzTdu0nrk2h8ba-35">
          <mxGeometry relative="1" as="geometry" />
        </mxCell>
        <mxCell id="jWLxuRp6a7rciEPFDUSf-4" value="根據&amp;nbsp;Random Data&lt;br&gt;的 FileData&lt;br&gt;來建構對應檔案、狀態" style="rounded=0;whiteSpace=wrap;html=1;fillColor=#dae8fc;strokeColor=#6c8ebf;" vertex="1" parent="1">
          <mxGeometry x="492.44" y="1240" width="145" height="60" as="geometry" />
        </mxCell>
        <mxCell id="w1lqQYtzTdu0nrk2h8ba-14" value="" style="edgeStyle=orthogonalEdgeStyle;rounded=0;orthogonalLoop=1;jettySize=auto;html=1;" edge="1" parent="1" source="w1lqQYtzTdu0nrk2h8ba-4" target="w1lqQYtzTdu0nrk2h8ba-11">
          <mxGeometry relative="1" as="geometry">
            <Array as="points">
              <mxPoint x="485" y="450" />
            </Array>
          </mxGeometry>
        </mxCell>
        <mxCell id="w1lqQYtzTdu0nrk2h8ba-16" value="沒有對話劇情" style="edgeLabel;html=1;align=center;verticalAlign=middle;resizable=0;points=[];" vertex="1" connectable="0" parent="w1lqQYtzTdu0nrk2h8ba-14">
          <mxGeometry x="-0.253" y="-1" relative="1" as="geometry">
            <mxPoint x="-93" y="-1" as="offset" />
          </mxGeometry>
        </mxCell>
        <mxCell id="w1lqQYtzTdu0nrk2h8ba-18" value="&lt;span style=&quot;color: rgb(0, 0, 0); font-family: Helvetica; font-size: 11px; font-style: normal; font-variant-ligatures: normal; font-variant-caps: normal; font-weight: 400; letter-spacing: normal; orphans: 2; text-align: center; text-indent: 0px; text-transform: none; widows: 2; word-spacing: 0px; -webkit-text-stroke-width: 0px; background-color: rgb(255, 255, 255); text-decoration-thickness: initial; text-decoration-style: initial; text-decoration-color: initial; float: none; display: inline !important;&quot;&gt;有對話劇情&lt;/span&gt;" style="edgeStyle=orthogonalEdgeStyle;rounded=0;orthogonalLoop=1;jettySize=auto;html=1;" edge="1" parent="1" source="w1lqQYtzTdu0nrk2h8ba-4" target="w1lqQYtzTdu0nrk2h8ba-17">
          <mxGeometry relative="1" as="geometry" />
        </mxCell>
        <mxCell id="w1lqQYtzTdu0nrk2h8ba-4" value="Random Data" style="shape=cylinder3;whiteSpace=wrap;html=1;boundedLbl=1;backgroundOutline=1;size=15;fillColor=#f8cecc;strokeColor=#b85450;" vertex="1" parent="1">
          <mxGeometry x="255" y="420" width="90" height="80" as="geometry" />
        </mxCell>
        <mxCell id="w1lqQYtzTdu0nrk2h8ba-8" value="&lt;span style=&quot;color: rgb(0, 0, 0); font-family: Helvetica; font-size: 11px; font-style: normal; font-variant-ligatures: normal; font-variant-caps: normal; font-weight: 400; letter-spacing: normal; orphans: 2; text-align: center; text-indent: 0px; text-transform: none; widows: 2; word-spacing: 0px; -webkit-text-stroke-width: 0px; background-color: rgb(255, 255, 255); text-decoration-thickness: initial; text-decoration-style: initial; text-decoration-color: initial; float: none; display: inline !important;&quot;&gt;自行練習&lt;/span&gt;" style="edgeStyle=orthogonalEdgeStyle;rounded=0;orthogonalLoop=1;jettySize=auto;html=1;" edge="1" parent="1" source="w1lqQYtzTdu0nrk2h8ba-6" target="w1lqQYtzTdu0nrk2h8ba-4">
          <mxGeometry x="0.1468" relative="1" as="geometry">
            <mxPoint as="offset" />
          </mxGeometry>
        </mxCell>
        <mxCell id="w1lqQYtzTdu0nrk2h8ba-12" value="" style="edgeStyle=orthogonalEdgeStyle;rounded=0;orthogonalLoop=1;jettySize=auto;html=1;" edge="1" parent="1" source="w1lqQYtzTdu0nrk2h8ba-6" target="w1lqQYtzTdu0nrk2h8ba-11">
          <mxGeometry relative="1" as="geometry">
            <Array as="points">
              <mxPoint x="570" y="450" />
              <mxPoint x="485" y="450" />
            </Array>
          </mxGeometry>
        </mxCell>
        <mxCell id="w1lqQYtzTdu0nrk2h8ba-13" value="教學關卡" style="edgeLabel;html=1;align=center;verticalAlign=middle;resizable=0;points=[];" vertex="1" connectable="0" parent="w1lqQYtzTdu0nrk2h8ba-12">
          <mxGeometry x="-0.3389" y="3" relative="1" as="geometry">
            <mxPoint x="27" y="-3" as="offset" />
          </mxGeometry>
        </mxCell>
        <mxCell id="w1lqQYtzTdu0nrk2h8ba-6" value="現在是&lt;br&gt;教學關卡&lt;br style=&quot;border-color: var(--border-color);&quot;&gt;or 自行練習" style="rhombus;whiteSpace=wrap;html=1;fillColor=#ffe6cc;strokeColor=#d79b00;" vertex="1" parent="1">
          <mxGeometry x="530" y="284" width="80" height="80" as="geometry" />
        </mxCell>
        <mxCell id="w1lqQYtzTdu0nrk2h8ba-25" value="" style="edgeStyle=orthogonalEdgeStyle;rounded=0;orthogonalLoop=1;jettySize=auto;html=1;" edge="1" parent="1" source="w1lqQYtzTdu0nrk2h8ba-11" target="w1lqQYtzTdu0nrk2h8ba-24">
          <mxGeometry relative="1" as="geometry" />
        </mxCell>
        <mxCell id="w1lqQYtzTdu0nrk2h8ba-27" value="" style="edgeStyle=orthogonalEdgeStyle;rounded=0;orthogonalLoop=1;jettySize=auto;html=1;" edge="1" parent="1" source="w1lqQYtzTdu0nrk2h8ba-11" target="w1lqQYtzTdu0nrk2h8ba-26">
          <mxGeometry relative="1" as="geometry" />
        </mxCell>
        <mxCell id="w1lqQYtzTdu0nrk2h8ba-29" value="" style="edgeStyle=orthogonalEdgeStyle;rounded=0;orthogonalLoop=1;jettySize=auto;html=1;" edge="1" parent="1" source="w1lqQYtzTdu0nrk2h8ba-11" target="w1lqQYtzTdu0nrk2h8ba-28">
          <mxGeometry relative="1" as="geometry" />
        </mxCell>
        <mxCell id="w1lqQYtzTdu0nrk2h8ba-30" style="edgeStyle=orthogonalEdgeStyle;rounded=0;orthogonalLoop=1;jettySize=auto;html=1;exitX=0.5;exitY=0;exitDx=0;exitDy=0;entryX=0;entryY=0.5;entryDx=0;entryDy=0;opacity=50;" edge="1" parent="1" source="w1lqQYtzTdu0nrk2h8ba-11" target="F2sBNsnojIDMVPlAFSET-1">
          <mxGeometry relative="1" as="geometry" />
        </mxCell>
        <mxCell id="w1lqQYtzTdu0nrk2h8ba-31" value="取消對話&lt;br&gt;結束對話" style="edgeLabel;html=1;align=center;verticalAlign=middle;resizable=0;points=[];" vertex="1" connectable="0" parent="w1lqQYtzTdu0nrk2h8ba-30">
          <mxGeometry x="-0.0098" relative="1" as="geometry">
            <mxPoint as="offset" />
          </mxGeometry>
        </mxCell>
        <mxCell id="w1lqQYtzTdu0nrk2h8ba-11" value="協助功能選擇對話" style="whiteSpace=wrap;html=1;fillColor=#dae8fc;strokeColor=#6c8ebf;" vertex="1" parent="1">
          <mxGeometry x="425" y="680" width="120" height="60" as="geometry" />
        </mxCell>
        <mxCell id="w1lqQYtzTdu0nrk2h8ba-22" value="" style="edgeStyle=orthogonalEdgeStyle;rounded=0;orthogonalLoop=1;jettySize=auto;html=1;entryX=0.5;entryY=0;entryDx=0;entryDy=0;exitX=0.5;exitY=1;exitDx=0;exitDy=0;" edge="1" parent="1" source="w1lqQYtzTdu0nrk2h8ba-17" target="w1lqQYtzTdu0nrk2h8ba-21">
          <mxGeometry relative="1" as="geometry">
            <Array as="points">
              <mxPoint x="300" y="640" />
              <mxPoint x="140" y="640" />
            </Array>
          </mxGeometry>
        </mxCell>
        <mxCell id="w1lqQYtzTdu0nrk2h8ba-23" style="edgeStyle=orthogonalEdgeStyle;rounded=0;orthogonalLoop=1;jettySize=auto;html=1;entryX=0.5;entryY=0;entryDx=0;entryDy=0;exitX=0.5;exitY=1;exitDx=0;exitDy=0;" edge="1" parent="1" source="w1lqQYtzTdu0nrk2h8ba-17" target="w1lqQYtzTdu0nrk2h8ba-11">
          <mxGeometry relative="1" as="geometry">
            <mxPoint x="360" y="690" as="targetPoint" />
            <mxPoint x="420" y="580" as="sourcePoint" />
            <Array as="points">
              <mxPoint x="300" y="640" />
              <mxPoint x="485" y="640" />
            </Array>
          </mxGeometry>
        </mxCell>
        <mxCell id="w1lqQYtzTdu0nrk2h8ba-17" value="&lt;div style=&quot;text-align: left;&quot;&gt;&lt;span style=&quot;background-color: initial;&quot;&gt;選擇對話：&lt;/span&gt;&lt;/div&gt;&lt;div style=&quot;text-align: left;&quot;&gt;&lt;span style=&quot;background-color: initial;&quot;&gt;1. 協助功能&lt;/span&gt;&lt;/div&gt;2. 與委託人對話" style="whiteSpace=wrap;html=1;fillColor=#dae8fc;strokeColor=#6c8ebf;" vertex="1" parent="1">
          <mxGeometry x="240" y="550" width="120" height="60" as="geometry" />
        </mxCell>
        <mxCell id="w1lqQYtzTdu0nrk2h8ba-33" style="edgeStyle=orthogonalEdgeStyle;rounded=0;orthogonalLoop=1;jettySize=auto;html=1;entryX=0.5;entryY=0;entryDx=0;entryDy=0;" edge="1" parent="1" source="w1lqQYtzTdu0nrk2h8ba-21" target="w1lqQYtzTdu0nrk2h8ba-32">
          <mxGeometry relative="1" as="geometry" />
        </mxCell>
        <mxCell id="w1lqQYtzTdu0nrk2h8ba-45" style="edgeStyle=orthogonalEdgeStyle;rounded=0;orthogonalLoop=1;jettySize=auto;html=1;exitX=0.5;exitY=0;exitDx=0;exitDy=0;entryX=0;entryY=0.5;entryDx=0;entryDy=0;opacity=50;" edge="1" parent="1" source="w1lqQYtzTdu0nrk2h8ba-21" target="F2sBNsnojIDMVPlAFSET-1">
          <mxGeometry relative="1" as="geometry" />
        </mxCell>
        <mxCell id="w1lqQYtzTdu0nrk2h8ba-47" value="取消對話&lt;br style=&quot;border-color: var(--border-color);&quot;&gt;結束對話" style="edgeLabel;html=1;align=center;verticalAlign=middle;resizable=0;points=[];" vertex="1" connectable="0" parent="w1lqQYtzTdu0nrk2h8ba-45">
          <mxGeometry x="-0.2568" y="2" relative="1" as="geometry">
            <mxPoint as="offset" />
          </mxGeometry>
        </mxCell>
        <mxCell id="w1lqQYtzTdu0nrk2h8ba-21" value="委託人對話" style="whiteSpace=wrap;html=1;fillColor=#dae8fc;strokeColor=#6c8ebf;" vertex="1" parent="1">
          <mxGeometry x="80" y="680" width="120" height="60" as="geometry" />
        </mxCell>
        <mxCell id="w1lqQYtzTdu0nrk2h8ba-24" value="&lt;div style=&quot;text-align: left;&quot;&gt;&lt;span style=&quot;background-color: initial;&quot;&gt;回顧對話：&lt;/span&gt;&lt;/div&gt;&lt;div style=&quot;text-align: left;&quot;&gt;&lt;span style=&quot;background-color: initial;&quot;&gt;1. 至今的對話概要&lt;/span&gt;&lt;/div&gt;&lt;div style=&quot;text-align: left;&quot;&gt;&lt;span style=&quot;background-color: initial;&quot;&gt;2. 本次目標對話&lt;/span&gt;&lt;/div&gt;" style="whiteSpace=wrap;html=1;fillColor=#dae8fc;strokeColor=#6c8ebf;" vertex="1" parent="1">
          <mxGeometry x="290" y="770" width="120" height="60" as="geometry" />
        </mxCell>
        <mxCell id="w1lqQYtzTdu0nrk2h8ba-26" value="提示功能&lt;br&gt;標記 🔼" style="whiteSpace=wrap;html=1;fillColor=#dae8fc;strokeColor=#6c8ebf;" vertex="1" parent="1">
          <mxGeometry x="425" y="770" width="120" height="60" as="geometry" />
        </mxCell>
        <mxCell id="w1lqQYtzTdu0nrk2h8ba-28" value="解答功能&lt;br&gt;標記 ❌&#x9;" style="whiteSpace=wrap;html=1;fillColor=#dae8fc;strokeColor=#6c8ebf;" vertex="1" parent="1">
          <mxGeometry x="570" y="770" width="120" height="60" as="geometry" />
        </mxCell>
        <mxCell id="w1lqQYtzTdu0nrk2h8ba-32" value="&lt;div style=&quot;text-align: left;&quot;&gt;&lt;span style=&quot;background-color: initial;&quot;&gt;回顧對話：&lt;/span&gt;&lt;/div&gt;&lt;div style=&quot;text-align: left;&quot;&gt;&lt;span style=&quot;background-color: initial;&quot;&gt;1. 至今的對話記錄&lt;/span&gt;&lt;/div&gt;&lt;div style=&quot;text-align: left;&quot;&gt;&lt;span style=&quot;background-color: initial;&quot;&gt;2. 本次目標對話&lt;/span&gt;&lt;/div&gt;" style="whiteSpace=wrap;html=1;fillColor=#dae8fc;strokeColor=#6c8ebf;" vertex="1" parent="1">
          <mxGeometry x="80" y="770" width="120" height="60" as="geometry" />
        </mxCell>
        <mxCell id="w1lqQYtzTdu0nrk2h8ba-34" value="" style="edgeStyle=orthogonalEdgeStyle;rounded=0;orthogonalLoop=1;jettySize=auto;html=1;" edge="1" parent="1" source="w1lqQYtzTdu0nrk2h8ba-35" target="w1lqQYtzTdu0nrk2h8ba-36">
          <mxGeometry relative="1" as="geometry" />
        </mxCell>
        <mxCell id="w1lqQYtzTdu0nrk2h8ba-35" value="是否有劇情&lt;br&gt;有 -&amp;gt; 顯示對話&lt;br&gt;無 -&amp;gt; 繼續遊戲" style="whiteSpace=wrap;html=1;fillColor=#dae8fc;strokeColor=#6c8ebf;" vertex="1" parent="1">
          <mxGeometry x="504.94" y="1320" width="120" height="60" as="geometry" />
        </mxCell>
        <mxCell id="w1lqQYtzTdu0nrk2h8ba-40" style="edgeStyle=orthogonalEdgeStyle;rounded=0;orthogonalLoop=1;jettySize=auto;html=1;entryX=0;entryY=0.5;entryDx=0;entryDy=0;" edge="1" parent="1" source="w1lqQYtzTdu0nrk2h8ba-36" target="s7X27T3UPjLkiVih65jg-1">
          <mxGeometry relative="1" as="geometry" />
        </mxCell>
        <mxCell id="w1lqQYtzTdu0nrk2h8ba-41" value="沒有任務了" style="edgeLabel;html=1;align=center;verticalAlign=middle;resizable=0;points=[];" vertex="1" connectable="0" parent="w1lqQYtzTdu0nrk2h8ba-40">
          <mxGeometry x="-0.7249" y="-3" relative="1" as="geometry">
            <mxPoint x="10" y="-3" as="offset" />
          </mxGeometry>
        </mxCell>
        <mxCell id="w1lqQYtzTdu0nrk2h8ba-36" value="開始下一個任務" style="rounded=0;whiteSpace=wrap;html=1;fillColor=#dae8fc;strokeColor=#6c8ebf;" vertex="1" parent="1">
          <mxGeometry x="504.94" y="1400" width="120" height="60" as="geometry" />
        </mxCell>
        <mxCell id="w1lqQYtzTdu0nrk2h8ba-43" style="edgeStyle=orthogonalEdgeStyle;rounded=0;orthogonalLoop=1;jettySize=auto;html=1;entryX=0;entryY=0.5;entryDx=0;entryDy=0;entryPerimeter=0;exitX=0;exitY=0.5;exitDx=0;exitDy=0;" edge="1" parent="1" source="w1lqQYtzTdu0nrk2h8ba-36" target="DBEBQdEUPsQynktlNXna-1">
          <mxGeometry relative="1" as="geometry">
            <mxPoint x="499.94" y="1430" as="sourcePoint" />
            <Array as="points">
              <mxPoint x="399.94" y="1430" />
              <mxPoint x="399.94" y="1180" />
            </Array>
          </mxGeometry>
        </mxCell>
        <mxCell id="w1lqQYtzTdu0nrk2h8ba-44" value="完成本次模擬背景目標&lt;br&gt;繼續建構下一個&lt;br&gt;（前面關卡常見）" style="edgeLabel;html=1;align=center;verticalAlign=middle;resizable=0;points=[];" vertex="1" connectable="0" parent="w1lqQYtzTdu0nrk2h8ba-43">
          <mxGeometry x="-0.2233" y="3" relative="1" as="geometry">
            <mxPoint x="3" y="-30" as="offset" />
          </mxGeometry>
        </mxCell>
      </root>
    </mxGraphModel>
  </diagram>
</mxfile>
